<svg width="16" height="16" viewBox="0 0 16 16" fill="none" xmlns="http://www.w3.org/2000/svg">
<path fill-rule="evenodd" clip-rule="evenodd" d="M8.00003 1.25C5.33663 1.25 3.09003 3.23326 2.75968 5.87609L2.1004 11.1503C1.94997 12.3537 2.88832 13.4167 4.10109 13.4167H4.84686C5.42089 14.6354 6.64823 15.4167 8.00001 15.4167C9.35178 15.4167 10.5791 14.6354 11.1532 13.4167H11.899C13.1117 13.4167 14.0501 12.3537 13.8997 11.1503L13.2404 5.87609C12.91 3.23326 10.6634 1.25 8.00003 1.25ZM10.6838 11.9167C10.6726 11.9164 10.6615 11.9164 10.6504 11.9167H5.34965C5.33852 11.9164 5.32737 11.9164 5.3162 11.9167H4.10109C3.79056 11.9167 3.5503 11.6445 3.58882 11.3364L4.2481 6.06214C4.48462 4.16995 6.09312 2.75 8.00003 2.75C9.90694 2.75 11.5154 4.16995 11.752 6.06214L12.4112 11.3364C12.4498 11.6445 12.2095 11.9167 11.899 11.9167H10.6838ZM6.68254 13.4167H9.31747C8.96103 13.7326 8.49517 13.9167 8.00001 13.9167C7.50484 13.9167 7.03898 13.7326 6.68254 13.4167Z" fill="white" fill-opacity="0.8"/>
</svg>
